<?xml version="1.0" encoding="UTF-8"?>
<!-- Generator: visioncortex VTracer 0.6.4 -->
<svg version="1.1" xmlns="http://www.w3.org/2000/svg" width="1300" height="1300">
<path d="M0 0 C429 0 858 0 1300 0 C1300 429 1300 858 1300 1300 C871 1300 442 1300 0 1300 C0 871 0 442 0 0 Z " fill="#FEFEFE" transform="translate(0,0)"/>
<path d="M0 0 C238.26 0 476.52 0 722 0 C713.98 16.05 713.98 16.05 710.19 22.31 C709.33 23.75 708.47 25.19 707.62 26.62 C707.19 27.34 706.76 28.06 706.31 28.8 C704.13 32.46 701.97 36.14 699.81 39.81 C698.98 41.23 698.15 42.64 697.32 44.05 C690.74 55.24 690.74 55.24 684.36 66.55 C676.79 80.16 668.97 93.65 660.75 106.88 C657.77 111.69 654.98 116.57 652.32 121.56 C650.96 124.08 649.48 126.54 648 129 C576.39 129 504.78 129 431 129 C431 347.79 431 566.58 431 792 C154.79 792 -121.42 792 -406 792 C-406 531.3 -406 270.6 -406 2 C-360.46 2 -314.92 2 -268 2 C-255.17 23.39 -255.17 23.39 -250.2 32.17 C-246.8 38.14 -243.26 44.03 -239.74 49.92 C-236.51 55.36 -233.42 60.86 -230.41 66.42 C-228.42 70.06 -226.31 73.63 -224.19 77.19 C-220.89 82.75 -217.65 88.35 -214.5 94 C-211 100.27 -207.39 106.46 -203.73 112.64 C-200.9 117.43 -198.15 122.26 -195.44 127.12 C-192.55 132.31 -189.58 137.43 -186.5 142.5 C-183.51 147.43 -180.62 152.4 -177.81 157.44 C-173.44 165.28 -168.91 173.03 -164.38 180.78 C-160.44 187.52 -156.54 194.28 -152.69 201.06 C-149.4 206.84 -146.08 212.58 -142.62 218.25 C-138.73 224.66 -135.08 231.19 -131.44 237.75 C-126.31 246.98 -121.03 256.11 -115.62 265.19 C-115.28 265.77 -114.94 266.34 -114.58 266.94 C-113.57 268.63 -112.56 270.33 -111.55 272.02 C-107.99 278.01 -104.5 284.04 -101.07 290.11 C-99.73 292.47 -98.38 294.83 -97.04 297.18 C-96.5 298.11 -95.97 299.04 -95.42 300 C-94.38 301.82 -93.34 303.64 -92.3 305.46 C-89.16 310.95 -86.06 316.46 -83 322 C-82.34 322 -81.68 322 -81 322 C-80.67 321.41 -80.34 320.83 -80 320.22 C-72.53 306.99 -65.04 293.78 -57.49 280.6 C-55.98 277.96 -54.47 275.33 -52.97 272.69 C-47.73 263.5 -42.46 254.32 -37.15 245.17 C-33.72 239.25 -30.32 233.32 -26.94 227.38 C-22.95 220.38 -18.91 213.42 -14.81 206.49 C-11.3 200.54 -7.86 194.56 -4.44 188.56 C-3.91 187.64 -3.39 186.72 -2.85 185.78 C-0.34 181.43 -0.34 181.43 2 177 C81.2 177 160.4 177 242 177 C242 320.22 242 463.44 242 611 C196.46 611 150.92 611 104 611 C103.5 439.24 103.5 439.24 103 264 C99.37 270.27 95.74 276.54 92 283 C87.69 290 87.69 290 85.75 293.12 C83.64 296.59 81.71 300.13 79.8 303.71 C72.46 317.15 64.66 330.33 56.93 343.55 C53.3 349.75 49.72 355.98 46.16 362.23 C43.86 366.26 41.51 370.25 39.17 374.25 C32.92 384.92 26.79 395.64 20.79 406.45 C16.04 415.01 11.01 423.38 5.87 431.72 C1.92 438.12 -1.95 444.53 -5.48 451.18 C-8.88 457.51 -12.46 463.74 -16 470 C-16.51 470.91 -16.51 470.91 -17.04 471.84 C-21.14 479.09 -25.34 486.26 -29.64 493.39 C-34.6 501.63 -39.38 509.97 -43.94 518.44 C-46.2 522.61 -48.6 526.69 -51.06 530.75 C-54.99 537.22 -58.73 543.78 -62.44 550.38 C-66.46 557.53 -70.52 564.67 -74.69 571.75 C-75.1 572.45 -75.51 573.14 -75.93 573.86 C-77.56 576.62 -79.22 579.33 -81 582 C-85.34 580.55 -86.29 577.28 -88.31 573.44 C-89.2 571.79 -90.09 570.14 -90.99 568.5 C-91.47 567.61 -91.95 566.72 -92.45 565.81 C-95.21 560.82 -98.11 555.91 -101 551 C-105.19 543.86 -109.32 536.69 -113.31 529.44 C-116.21 524.16 -119.19 518.95 -122.31 513.81 C-126.04 507.67 -129.6 501.45 -133.12 495.19 C-138.02 486.49 -142.95 477.83 -147.94 469.19 C-148.55 468.12 -149.17 467.05 -149.8 465.96 C-153.02 460.38 -156.28 454.84 -159.6 449.33 C-161.79 445.68 -163.93 442 -166.06 438.31 C-166.53 437.51 -166.99 436.71 -167.47 435.89 C-171.21 429.41 -174.89 422.89 -178.56 416.38 C-182.66 409.11 -186.8 401.88 -191.05 394.7 C-194.92 388.16 -198.71 381.58 -202.5 375 C-206.7 367.71 -210.91 360.43 -215.19 353.19 C-219.28 346.26 -223.28 339.28 -227.26 332.29 C-231.13 325.5 -235.05 318.74 -239 312 C-243.47 304.35 -247.92 296.69 -252.31 289 C-252.76 288.23 -253.2 287.45 -253.65 286.65 C-258.14 278.79 -262.56 270.89 -267 263 C-267.5 461 -267.5 461 -268 663 C-83.53 663 100.94 663 291 663 C291 486.78 291 310.56 291 129 C194.97 129 98.94 129 0 129 C0 86.43 0 43.86 0 0 Z " fill="#000000" transform="translate(527,252)"/>
<path d="M0 0 C71.28 0 142.56 0 216 0 C216 0.33 216 0.66 216 1 C146.04 1 76.08 1 4 1 C3.5 328.69 3.5 328.69 3 663 C0.35 664.33 -1.65 664.12 -4.62 664.12 C-5.83 664.13 -7.03 664.13 -8.28 664.13 C-9.63 664.13 -10.98 664.13 -12.33 664.12 C-13.76 664.12 -15.2 664.12 -16.63 664.13 C-20.59 664.13 -24.56 664.13 -28.52 664.12 C-32.83 664.12 -37.13 664.12 -41.43 664.12 C-48.98 664.12 -56.53 664.12 -64.08 664.12 C-75.31 664.11 -86.53 664.11 -97.76 664.11 C-116.64 664.12 -135.52 664.11 -154.41 664.11 C-173.11 664.1 -191.81 664.1 -210.52 664.09 C-211.68 664.09 -212.84 664.09 -214.04 664.09 C-219.94 664.09 -225.84 664.09 -231.74 664.09 C-273.55 664.09 -315.37 664.08 -357.18 664.08 C-397.81 664.07 -438.45 664.06 -479.08 664.05 C-480.33 664.05 -481.58 664.05 -482.87 664.05 C-495.44 664.05 -508.01 664.05 -520.58 664.05 C-546.19 664.05 -571.8 664.05 -597.41 664.04 C-599.17 664.04 -599.17 664.04 -600.98 664.04 C-679.65 664.03 -758.33 664.02 -837 664 C-837 663.67 -837 663.34 -837 663 C-560.79 663 -284.58 663 0 663 C0 444.21 0 225.42 0 0 Z " fill="#BFBFBF" transform="translate(958,381)"/>
<path d="M0 0 C96.03 0 192.06 0 291 0 C291 176.22 291 352.44 291 534 C106.53 534 -77.94 534 -268 534 C-268 401.67 -268 269.34 -268 133 C-265 136 -265 136 -264 139 C-264.99 139 -265.98 139 -267 139 C-267 269.02 -267 399.04 -267 533 C-83.85 533 99.3 533 288 533 C289.64 529.72 289.13 526.08 289.12 522.48 C289.12 521.13 289.12 521.13 289.13 519.76 C289.13 516.72 289.12 513.68 289.12 510.64 C289.12 508.45 289.12 506.26 289.12 504.08 C289.13 498.04 289.12 492 289.12 485.96 C289.11 479.46 289.11 472.96 289.11 466.45 C289.11 455.18 289.11 443.91 289.11 432.63 C289.1 420.81 289.1 408.98 289.09 397.15 C289.09 396.42 289.09 395.68 289.09 394.93 C289.09 391.2 289.09 387.47 289.09 383.74 C289.09 357.29 289.08 330.85 289.08 304.41 C289.07 278.72 289.06 253.02 289.05 227.33 C289.05 225.72 289.05 224.1 289.05 222.49 C289.05 209.36 289.05 196.24 289.05 183.12 C289.04 122.42 289.02 61.71 289 1 C193.63 1 98.26 1 0 1 C0 0.67 0 0.34 0 0 Z " fill="#EBEBEB" transform="translate(527,381)"/>
<path d="M0 0 C0.33 0 0.66 0 1 0 C1 42.24 1 84.48 1 128 C3.31 128 5.62 128 8 128 C8 127.34 8 126.68 8 126 C100.4 126 192.8 126 288 126 C288 125.34 288 124.68 288 124 C289.32 124.66 290.64 125.32 292 126 C291.67 126.99 291.34 127.98 291 129 C194.97 129 98.94 129 0 129 C0 86.43 0 43.86 0 0 Z " fill="#161616" transform="translate(527,252)"/>
<path d="M0 0 C1 2 1 2 1 6 C0.34 6 -0.32 6 -1 6 C-0.66 7.11 -0.66 7.11 -0.31 8.25 C0 11 0 11 -1.44 13.31 C-1.95 13.87 -2.47 14.43 -3 15 C-3 14.34 -3 13.68 -3 13 C-5.33 13.96 -5.33 13.96 -7 17 C-7.66 16.34 -8.32 15.68 -9 15 C-7.69 12.69 -6.38 10.37 -5.06 8.06 C-4.5 7.07 -4.5 7.07 -3.93 6.06 C-1.11 1.11 -1.11 1.11 0 0 Z " fill="#ECECEC" transform="translate(512,719)"/>
<path d="M0 0 C2 3.99 2.2 5.7 2 10 C-4.62 14 -4.62 14 -8 14 C-5.36 9.38 -2.72 4.76 0 0 Z " fill="#F4F4F4" transform="translate(571,616)"/>
<path d="M0 0 C0.99 0 1.98 0 3 0 C3 0.66 3 1.32 3 2 C3.99 1.67 4.98 1.34 6 1 C6.33 1.99 6.66 2.98 7 4 C5.91 4.19 4.81 4.37 3.69 4.56 C-0.33 5.64 -0.33 5.64 -1.69 9.56 C-2.12 10.7 -2.55 11.83 -3 13 C-5.19 13.94 -5.19 13.94 -7 14 C-5.6 8.92 -3.45 4.03 0 0 Z " fill="#F7F7F7" transform="translate(1232,281)"/>
<path d="M0 0 C1.65 0 3.3 0 5 0 C3.35 2.97 1.7 5.94 0 9 C-0.99 8.67 -1.98 8.34 -3 8 C-4.69 4.44 -4.69 4.44 -6 1 C-5.38 1.21 -4.76 1.41 -4.12 1.62 C-3.07 1.81 -3.07 1.81 -2 2 C-1.34 1.34 -0.68 0.68 0 0 Z " fill="#ECECEC" transform="translate(446,566)"/>
<path d="M0 0 C0.66 0 1.32 0 2 0 C2.33 1.98 2.66 3.96 3 6 C2.34 6 1.68 6 1 6 C1 6.66 1 7.32 1 8 C0.34 8 -0.32 8 -1 8 C-0.67 8.99 -0.34 9.98 0 11 C-1.98 11.33 -3.96 11.66 -6 12 C-4.43 7.69 -2.32 3.94 0 0 Z " fill="#EDEDED" transform="translate(1202,333)"/>
<path d="M0 0 C2.97 0.33 5.94 0.66 9 1 C8 5 8 5 7 8 C7 9.32 7 10.64 7 12 C3.94 8.33 2.07 4.28 0 0 Z " fill="#121212" transform="translate(396,750)"/>
<path d="M0 0 C0.33 0.66 0.66 1.32 1 2 C1.66 2 2.32 2 3 2 C3 2.99 3 3.98 3 5 C2.01 5 1.02 5 0 5 C-0.33 6.98 -0.66 8.96 -1 11 C-2.32 11 -3.64 11 -5 11 C-5 11.66 -5 12.32 -5 13 C-4.34 13.33 -3.68 13.66 -3 14 C-3.99 14.33 -4.98 14.66 -6 15 C-7 12 -7 12 -5.57 9.08 C-4.91 8 -4.24 6.92 -3.56 5.81 C-2.9 4.73 -2.25 3.64 -1.57 2.52 C-1.05 1.69 -0.53 0.86 0 0 Z " fill="#EBEBEB" transform="translate(556,642)"/>
<path d="M0 0 C2.02 3.68 2.02 3.68 1.81 6.56 C0.63 10.11 -0.94 11.43 -4.19 13.19 C-4.79 13.46 -5.38 13.72 -6 14 C-6 10.28 -4.82 8.54 -3 5.31 C-2.44 4.32 -1.89 3.32 -1.31 2.3 C-0.88 1.54 -0.45 0.78 0 0 Z " fill="#111111" transform="translate(494,490)"/>
<path d="M0 0 C1.09 1.84 1.09 1.84 2 4 C0.56 6.62 0.56 6.62 -1 9 C-0.67 9.66 -0.34 10.32 0 11 C-0.66 11 -1.32 11 -2 11 C-2 11.66 -2 12.32 -2 13 C-3.88 13.62 -3.88 13.62 -6 14 C-6.66 13.34 -7.32 12.68 -8 12 C-7.56 11.6 -7.12 11.2 -6.67 10.79 C-4.79 8.77 -3.62 6.74 -2.31 4.31 C-1.88 3.5 -1.44 2.7 -0.99 1.86 C-0.66 1.25 -0.34 0.63 0 0 Z " fill="#131313" transform="translate(452,563)"/>
<path d="M0 0 C0.99 0.33 1.98 0.66 3 1 C3.99 0.67 4.98 0.34 6 0 C4.24 4.97 1.61 9.43 -1 14 C-1.99 13.67 -2.98 13.34 -4 13 C-2 9.67 0 6.33 2 3 C1.34 3 0.68 3 0 3 C0 2.01 0 1.02 0 0 Z " fill="#ECECEC" transform="translate(464,532)"/>
<path d="M0 0 C0.99 0.33 1.98 0.66 3 1 C1.02 4.63 -0.96 8.26 -3 12 C-6 8 -6 8 -5.69 5.25 C-5.46 4.51 -5.23 3.76 -5 3 C-4.34 3.33 -3.68 3.66 -3 4 C-2.01 2.68 -1.02 1.36 0 0 Z " fill="#171717" transform="translate(1215,306)"/>
<path d="M0 0 C1.32 0.33 2.64 0.66 4 1 C1.25 7.88 1.25 7.88 -1 9 C-1.66 7.35 -2.32 5.7 -3 4 C-3.99 4.33 -4.98 4.66 -6 5 C-5.67 4.01 -5.34 3.02 -5 2 C-3.35 1.67 -1.7 1.34 0 1 C0 0.67 0 0.34 0 0 Z " fill="#111111" transform="translate(479,768)"/>
<path d="M0 0 C1 2 2 4 3 6 C1.68 6.33 0.36 6.66 -1 7 C-1.12 7.62 -1.25 8.24 -1.38 8.88 C-2 11 -2 11 -4 13 C-4.66 12.34 -5.32 11.68 -6 11 C-4.02 7.37 -2.04 3.74 0 0 Z " fill="#151515" transform="translate(509,464)"/>
<path d="M0 0 C0.66 0.99 1.32 1.98 2 3 C2.33 3.33 2.66 3.66 3 4 C3.36 5.33 3.7 6.66 4 8 C3.24 8.12 2.47 8.25 1.69 8.38 C-1.2 8.88 -1.2 8.88 -4 11 C-4.33 10.34 -4.66 9.68 -5 9 C-4 6.84 -4 6.84 -2.56 4.38 C-2.09 3.56 -1.62 2.74 -1.13 1.9 C-0.76 1.27 -0.38 0.65 0 0 Z " fill="#EAEAEA" transform="translate(1185,362)"/>
<path d="M0 0 C3.37 2.72 4.44 6.07 6 10 C2.8 10 0.91 9.26 -2 8 C-1.34 5.36 -0.68 2.72 0 0 Z " fill="#EDEDED" transform="translate(363,694)"/>
<path d="M0 0 C3.22 3.8 5.75 7.57 8 12 C7.67 12.66 7.34 13.32 7 14 C5.67 12.67 4.33 11.33 3 10 C2.44 9.53 1.89 9.05 1.31 8.56 C-0.46 6.46 -0.72 4.7 -1 2 C-0.67 1.34 -0.34 0.68 0 0 Z " fill="#151515" transform="translate(281,293)"/>
<path d="M0 0 C2.73 2.41 4.12 4.92 5.69 8.19 C6.12 9.09 6.56 9.99 7.01 10.92 C7.34 11.61 7.66 12.29 8 13 C7.01 13 6.02 13 5 13 C4.71 12.2 4.42 11.39 4.12 10.56 C3.27 7.87 3.27 7.87 1 7 C0.39 4.61 0 2.46 0 0 Z " fill="#151515" transform="translate(394,489)"/>
<path d="M0 0 C8 10.11 8 10.11 8 14 C7.01 14 6.02 14 5 14 C5 12.68 5 11.36 5 10 C4.01 10.33 3.02 10.66 2 11 C2.33 9.68 2.66 8.36 3 7 C2.01 6.67 1.02 6.34 0 6 C-0.38 4.34 -0.71 2.68 -1 1 C-0.67 0.67 -0.34 0.34 0 0 Z " fill="#E7E7E7" transform="translate(409,773)"/>
<path d="M0 0 C4.43 1.48 4.91 3.9 7 8 C7 8.66 7 9.32 7 10 C3.64 8.88 2.42 7.5 0 5 C-0.66 4.67 -1.32 4.34 -2 4 C-1.34 2.68 -0.68 1.36 0 0 Z " fill="#121212" transform="translate(304,335)"/>
<path d="M0 0 C1.65 0.33 3.3 0.66 5 1 C3.02 4.63 1.04 8.26 -1 12 C-1.66 11.01 -2.32 10.02 -3 9 C-2.34 9 -1.68 9 -1 9 C-0.67 6.03 -0.34 3.06 0 0 Z " fill="#141414" transform="translate(598,561)"/>
<path d="M0 0 C2 3 2 3 1.69 5 C1.46 5.66 1.23 6.32 1 7 C0.67 7.99 0.34 8.98 0 10 C-2.06 10.69 -2.06 10.69 -4 11 C-4.33 10.34 -4.66 9.68 -5 9 C-4 6.84 -4 6.84 -2.56 4.38 C-2.09 3.56 -1.62 2.74 -1.13 1.9 C-0.76 1.27 -0.38 0.65 0 0 Z " fill="#EAEAEA" transform="translate(1195,345)"/>
<path d="M0 0 C-1.09 3.78 -1.91 6.47 -5 9 C-5.99 8.67 -6.98 8.34 -8 8 C-5.19 0 -5.19 0 0 0 Z " fill="#121212" transform="translate(515,713)"/>
<path d="M0 0 C3.04 3.65 4.97 7.74 7 12 C6.34 12 5.68 12 5 12 C5 12.66 5 13.32 5 14 C4.34 13.67 3.68 13.34 3 13 C2.3 10.68 1.63 8.34 1 6 C0.67 5.67 0.34 5.34 0 5 C-0.04 3.33 -0.04 1.67 0 0 Z " fill="#E8E8E8" transform="translate(346,664)"/>
<path d="M0 0 C2.87 2.68 4.34 5.44 6 9 C4.34 9.38 2.68 9.71 1 10 C0 9 0 9 -0.1 6.93 C-0.09 6.11 -0.07 5.29 -0.06 4.44 C-0.05 3.61 -0.04 2.78 -0.04 1.93 C-0.02 1.3 -0.01 0.66 0 0 Z " fill="#151515" transform="translate(323,366)"/>
<path d="M0 0 C0.66 0.99 1.32 1.98 2 3 C0.15 7.07 -1.66 10.01 -5 13 C-5.33 12.34 -5.66 11.68 -6 11 C-4.79 8.4 -4.79 8.4 -3.06 5.38 C-2.21 3.87 -2.21 3.87 -1.35 2.34 C-0.9 1.57 -0.46 0.79 0 0 Z " fill="#E7E7E7" transform="translate(453,820)"/>
<path d="M0 0 C0.99 0 1.98 0 3 0 C3 0.99 3 1.98 3 3 C3.64 3.21 4.28 3.41 4.94 3.62 C7 5 7 5 7.75 8.12 C7.83 9.07 7.92 10.02 8 11 C7.01 11.5 7.01 11.5 6 12 C4.02 8.04 2.04 4.08 0 0 Z " fill="#151515" transform="translate(352,674)"/>
<path d="M0 0 C3 1 3 1 4.19 3.06 C4.46 3.7 4.72 4.34 5 5 C5.66 5 6.32 5 7 5 C7 4.34 7 3.68 7 3 C7.66 3.33 8.32 3.66 9 4 C8.01 5.65 7.02 7.3 6 9 C3 8 3 8 1.31 5.06 C0 2 0 2 0 0 Z " fill="#191919" transform="translate(440,825)"/>
<path d="M0 0 C1 3 1 3 -0.21 5.48 C-0.78 6.37 -1.35 7.27 -1.94 8.19 C-2.5 9.09 -3.07 9.99 -3.65 10.92 C-4.1 11.61 -4.54 12.29 -5 13 C-5.66 12.34 -6.32 11.68 -7 11 C-6.67 10.34 -6.34 9.68 -6 9 C-5.34 9 -4.68 9 -4 9 C-3.67 6.36 -3.34 3.72 -3 1 C-2.01 0.67 -1.02 0.34 0 0 Z " fill="#111111" transform="translate(492,750)"/>
<path d="M0 0 C0.66 0 1.32 0 2 0 C2 0.66 2 1.32 2 2 C2.66 2.33 3.32 2.66 4 3 C3.01 3 2.02 3 1 3 C1.33 3.99 1.66 4.98 2 6 C-0.31 7.32 -2.62 8.64 -5 10 C-3.67 6.41 -2.17 3.16 0 0 Z " fill="#131313" transform="translate(523,440)"/>
<path d="M0 0 C3.09 2.53 3.91 5.22 5 9 C1.2 7.51 -0.61 5.24 -3 2 C-2.01 1.34 -1.02 0.68 0 0 Z " fill="#E6E6E6" transform="translate(385,732)"/>
<path d="M0 0 C0.99 0 1.98 0 3 0 C3.43 0.96 3.43 0.96 3.88 1.94 C4.83 4.15 4.83 4.15 7 5 C7.73 6.98 8.4 8.98 9 11 C8.01 11 7.02 11 6 11 C4.02 7.37 2.04 3.74 0 0 Z " fill="#EBEBEB" transform="translate(432,554)"/>
<path d="M0 0 C2.72 2.35 3.81 4.62 5 8 C3.68 8 2.36 8 1 8 C-1.25 5.5 -1.25 5.5 -3 3 C-2.01 2.01 -1.02 1.02 0 0 Z " fill="#E6E6E6" transform="translate(333,642)"/>
<path d="M0 0 C0 2.31 0 4.62 0 7 C0.66 7.33 1.32 7.66 2 8 C1.01 8.33 0.02 8.66 -1 9 C-2.32 6.36 -3.64 3.72 -5 1 C-3 0 -3 0 0 0 Z " fill="#EDEDED" transform="translate(354,409)"/>
<path d="M0 0 C0.66 0 1.32 0 2 0 C3.29 1.68 3.29 1.68 4.62 3.88 C5.29 4.95 5.29 4.95 5.98 6.05 C7 8 7 8 7 10 C5.68 9.67 4.36 9.34 3 9 C3.33 8.01 3.66 7.02 4 6 C3.01 5.67 2.02 5.34 1 5 C0.67 3.35 0.34 1.7 0 0 Z " fill="#EDEDED" transform="translate(281,554)"/>
<path d="M0 0 C2.48 0.99 2.48 0.99 5 2 C5 2.66 5 3.32 5 4 C5.66 4.33 6.32 4.66 7 5 C7 5.99 7 6.98 7 8 C6.34 8.66 5.68 9.32 5 10 C3.35 6.7 1.7 3.4 0 0 Z " fill="#EAEAEA" transform="translate(375,455)"/>
<path d="M0 0 C1.32 1.65 2.64 3.3 4 5 C2.04 6.07 0.03 7.07 -2 8 C-2.66 7.67 -3.32 7.34 -4 7 C-2.68 4.69 -1.36 2.38 0 0 Z " fill="#E7E7E7" transform="translate(474,784)"/>
<path d="M0 0 C0.66 0.99 1.32 1.98 2 3 C1.44 5.56 1.44 5.56 0 8 C-2.62 9.31 -2.62 9.31 -5 10 C-3.67 6.41 -2.04 3.25 0 0 Z " fill="#E5E5E5" transform="translate(562,632)"/>
<path d="M0 0 C2.93 2.93 4.27 5.3 6 9 C4.02 9 2.04 9 0 9 C0 6.03 0 3.06 0 0 Z " fill="#ECECEC" transform="translate(313,608)"/>
<path d="M0 0 C2.18 4.36 2.03 5.47 1 10 C-1.48 9.01 -1.48 9.01 -4 8 C-2.68 5.36 -1.36 2.72 0 0 Z " fill="#151515" transform="translate(483,509)"/>
<path d="M0 0 C0.33 0.66 0.66 1.32 1 2 C1.66 2.33 2.32 2.66 3 3 C2.01 3 1.02 3 0 3 C0.33 5.64 0.66 8.28 1 11 C0.01 11.5 0.01 11.5 -1 12 C-1.33 11.01 -1.66 10.02 -2 9 C-2.66 9 -3.32 9 -4 9 C-2.8 5.92 -1.52 2.94 0 0 Z " fill="#131313" transform="translate(502,476)"/>
<path d="M0 0 C0.99 1.32 1.98 2.64 3 4 C2.01 4.5 2.01 4.5 1 5 C0.35 7.02 0.35 7.02 0 9 C-1.32 9 -2.64 9 -4 9 C-2.8 5.92 -1.52 2.94 0 0 Z " fill="#141414" transform="translate(517,450)"/>
<path d="M0 0 C0.66 0 1.32 0 2 0 C3.32 2.64 4.64 5.28 6 8 C5.01 8.5 5.01 8.5 4 9 C3.01 8.34 2.02 7.68 1 7 C1.33 6.34 1.66 5.68 2 5 C1.34 4.67 0.68 4.34 0 4 C0 2.68 0 1.36 0 0 Z " fill="#161616" transform="translate(265,267)"/>
<path d="M0 0 C2.06 2.31 2.06 2.31 4 5 C3.67 5.99 3.34 6.98 3 8 C1.68 7.67 0.36 7.34 -1 7 C-1.04 5 -1.04 3 -1 1 C-0.67 0.67 -0.34 0.34 0 0 Z " fill="#E9E9E9" transform="translate(299,583)"/>
<path d="M0 0 C1.32 1.32 2.64 2.64 4 4 C2.89 6.22 1.51 8.04 0 10 C0 8.68 0 7.36 0 6 C-0.99 5.67 -1.98 5.34 -3 5 C-2.01 3.35 -1.02 1.7 0 0 Z " fill="#141414" transform="translate(474,525)"/>
<path d="M0 0 C0.66 0 1.32 0 2 0 C1.12 5.75 1.12 5.75 0 8 C-2.06 8.62 -2.06 8.62 -4 9 C-2.94 5.6 -1.99 2.99 0 0 Z " fill="#E1E1E1" transform="translate(1229,286)"/>
<path d="M0 0 C0.66 0.33 1.32 0.66 2 1 C2 5.27 1.36 6.6 -1 10 C-1.33 10 -1.66 10 -2 10 C-2.22 6.14 -1.6 3.51 0 0 Z " fill="#111111" transform="translate(455,810)"/>
<path d="M0 0 C0.66 0.66 1.32 1.32 2 2 C1.01 3.49 1.01 3.49 0 5 C0 5.66 0 6.32 0 7 C-0.66 7 -1.32 7 -2 7 C-2.33 7.99 -2.66 8.98 -3 10 C-3.66 10 -4.32 10 -5 10 C-3.67 6.41 -2.04 3.25 0 0 Z " fill="#E1E1E1" transform="translate(488,760)"/>
<path d="M0 0 C0.99 0 1.98 0 3 0 C3 0.66 3 1.32 3 2 C3.66 2.33 4.32 2.66 5 3 C5.75 4.94 5.75 4.94 6 7 C5.34 7.66 4.68 8.32 4 9 C0 2.25 0 2.25 0 0 Z " fill="#EBEBEB" transform="translate(281,291)"/>
<path d="M0 0 C2.97 0.5 2.97 0.5 6 1 C4.02 1.99 4.02 1.99 2 3 C2 3.66 2 4.32 2 5 C0.68 5.33 -0.64 5.66 -2 6 C-1.34 4.02 -0.68 2.04 0 0 Z " fill="#EDEDED" transform="translate(1248,253)"/>
<path d="M0 0 C2 4 2 4 2 6 C0.02 6.66 -1.96 7.32 -4 8 C-2.68 5.36 -1.36 2.72 0 0 Z " fill="#EDEDED" transform="translate(521,703)"/>
<path d="M0 0 C2.15 2.62 3.4 4.64 4 8 C2.68 7.67 1.36 7.34 0 7 C-0.38 5.01 -0.71 3.01 -1 1 C-0.67 0.67 -0.34 0.34 0 0 Z " fill="#E9E9E9" transform="translate(290,567)"/>
<path d="M0 0 C0.99 0.33 1.98 0.66 3 1 C2.67 3.64 2.34 6.28 2 9 C0.11 6.61 -1.02 4.93 -2 2 C-1.34 1.34 -0.68 0.68 0 0 Z " fill="#EBEBEB" transform="translate(420,527)"/>
<path d="M0 0 C2.25 2.05 3 3.01 4 6 C2.35 6.33 0.7 6.66 -1 7 C-1.33 5.35 -1.66 3.7 -2 2 C-1.34 2 -0.68 2 0 2 C0 1.34 0 0.68 0 0 Z " fill="#161616" transform="translate(375,456)"/>
<path d="M0 0 C0.66 0.99 1.32 1.98 2 3 C1.38 5.62 1.38 5.62 0 8 C-1.32 8.33 -2.64 8.66 -4 9 C-2.68 6.03 -1.36 3.06 0 0 Z " fill="#E0E0E0" transform="translate(495,747)"/>
<path d="M0 0 C2.25 2.69 3.88 4.65 5 8 C4.01 8.5 4.01 8.5 3 9 C0.94 6.75 0.94 6.75 -1 4 C-0.75 1.69 -0.75 1.69 0 0 Z " fill="#E1E1E1" transform="translate(377,718)"/>
<path d="M0 0 C2.72 2.35 3.81 4.62 5 8 C3.68 8 2.36 8 1 8 C0.17 5.11 0 3.11 0 0 Z " fill="#E2E2E2" transform="translate(322,623)"/>
<path d="M0 0 C0.66 0 1.32 0 2 0 C5 4.38 5 4.38 5 7 C2.38 5.95 1.21 5.35 -0.25 2.88 C-0.5 2.26 -0.75 1.64 -1 1 C-0.67 0.67 -0.34 0.34 0 0 Z " fill="#1D1D1D" transform="translate(424,542)"/>
<path d="M0 0 C0.33 0.66 0.66 1.32 1 2 C1.66 2.33 2.32 2.66 3 3 C1.68 3.33 0.36 3.66 -1 4 C-0.67 5.32 -0.34 6.64 0 8 C-1.65 8.33 -3.3 8.66 -5 9 C-3.35 6.03 -1.7 3.06 0 0 Z " fill="#E9E9E9" transform="translate(1219,304)"/>
<path d="M0 0 C2.48 0.5 2.48 0.5 5 1 C5.33 2.98 5.66 4.96 6 7 C5.01 7.5 5.01 7.5 4 8 C2.68 5.36 1.36 2.72 0 0 Z " fill="#EBEBEB" transform="translate(274,280)"/>
<path d="M0 0 C2.72 2.35 3.81 4.62 5 8 C0.12 5.38 0.12 5.38 -1 2 C-0.67 1.34 -0.34 0.68 0 0 Z " fill="#EBEBEB" transform="translate(294,575)"/>
<path d="M0 0 C1.32 1.65 2.64 3.3 4 5 C2.68 5.33 1.36 5.66 0 6 C-0.99 4.68 -1.98 3.36 -3 2 C-2.01 1.34 -1.02 0.68 0 0 Z " fill="#131313" transform="translate(356,423)"/>
<path d="M0 0 C0.99 0 1.98 0 3 0 C3 1.98 3 3.96 3 6 C2.01 6.5 2.01 6.5 1 7 C0.34 5.02 -0.32 3.04 -1 1 C-0.67 0.67 -0.34 0.34 0 0 Z " fill="#E9E9E9" transform="translate(346,401)"/>
<path d="M0 0 C3.74 1.25 4.19 2.63 6 6 C5.01 7.49 5.01 7.49 4 9 C0 2.25 0 2.25 0 0 Z " fill="#E2E2E2" transform="translate(335,385)"/>
<path d="M0 0 C3 1 3 1 5 3 C5.12 6.12 5.12 6.12 5 9 C0.57 3.86 0.57 3.86 0 0 Z " fill="#151515" transform="translate(434,815)"/>
<path d="M0 0 C2.01 2.56 3.63 5.05 5 8 C3.12 7.81 3.12 7.81 1 7 C-0.31 4.56 -0.31 4.56 -1 2 C-0.67 1.34 -0.34 0.68 0 0 Z " fill="#E6E6E6" transform="translate(417,787)"/>
<path d="M0 0 C0.99 0.99 1.98 1.98 3 3 C2.01 4.65 1.02 6.3 0 8 C-2 5 -2 5 -2 3 C-1.34 3 -0.68 3 0 3 C0 2.01 0 1.02 0 0 Z " fill="#111111" transform="translate(554,639)"/>
<path d="M0 0 C1.94 0.75 1.94 0.75 4 2 C4.88 4 4.88 4 5 6 C4.34 6.66 3.68 7.32 3 8 C0 2.25 0 2.25 0 0 Z " fill="#EAEAEA" transform="translate(314,348)"/>
<path d="M0 0 C0.99 1.32 1.98 2.64 3 4 C2.34 4 1.68 4 1 4 C1 4.66 1 5.32 1 6 C0.34 6 -0.32 6 -1 6 C-1.33 6.66 -1.66 7.32 -2 8 C-2.33 7.34 -2.66 6.68 -3 6 C-2.07 3.97 -1.07 1.96 0 0 Z " fill="#E9E9E9" transform="translate(516,711)"/>
<path d="M0 0 C0.66 1.32 1.32 2.64 2 4 C0.68 5.32 -0.64 6.64 -2 8 C-2.66 7.67 -3.32 7.34 -4 7 C-2.68 4.69 -1.36 2.38 0 0 Z " fill="#DBDBDB" transform="translate(571,616)"/>
<path d="M0 0 C1.32 1.65 2.64 3.3 4 5 C3.67 5.66 3.34 6.32 3 7 C2.01 6.67 1.02 6.34 0 6 C0 5.34 0 4.68 0 4 C-0.66 3.67 -1.32 3.34 -2 3 C-1.34 2.01 -0.68 1.02 0 0 Z " fill="#1C1C1C" transform="translate(277,286)"/>
<path d="M0 0 C2.5 2.17 3.44 3.73 4 7 C1.52 6.01 1.52 6.01 -1 5 C-0.67 3.35 -0.34 1.7 0 0 Z " fill="#1A1A1A" transform="translate(371,449)"/>
<path d="M0 0 C2.25 2.05 3 3.01 4 6 C3.01 6.5 3.01 6.5 2 7 C0 6 0 6 -0.69 4.06 C-1 2 -1 2 0 0 Z " fill="#252525" transform="translate(311,345)"/>
</svg>
